<svg width="56" height="57" viewBox="0 0 56 57" fill="currentColor" xmlns="http://www.w3.org/2000/svg">
<path fill-rule="evenodd" clip-rule="evenodd" d="M28.0002 47.1668C38.3095 47.1668 46.6668 38.8095 46.6668 28.5002C46.6668 18.1908 38.3095 9.8335 28.0002 9.8335C17.6908 9.8335 9.3335 18.1908 9.3335 28.5002C9.3335 38.8095 17.6908 47.1668 28.0002 47.1668ZM28.0002 50.6668C40.2425 50.6668 50.1668 40.7425 50.1668 28.5002C50.1668 16.2579 40.2425 6.3335 28.0002 6.3335C15.7579 6.3335 5.8335 16.2579 5.8335 28.5002C5.8335 40.7425 15.7579 50.6668 28.0002 50.6668Z" fill="currentColor"/>
<path fill-rule="evenodd" clip-rule="evenodd" d="M27.9998 15.6665C28.9663 15.6665 29.7498 16.45 29.7498 17.4165V32.5832C29.7498 33.5497 28.9663 34.3332 27.9998 34.3332C27.0333 34.3332 26.2498 33.5497 26.2498 32.5832V17.4165C26.2498 16.45 27.0333 15.6665 27.9998 15.6665Z" fill="currentColor"/>
<path d="M30.3332 38.9998C30.3332 40.2885 29.2885 41.3332 27.9998 41.3332C26.7112 41.3332 25.6665 40.2885 25.6665 38.9998C25.6665 37.7112 26.7112 36.6665 27.9998 36.6665C29.2885 36.6665 30.3332 37.7112 30.3332 38.9998Z" fill="currentColor"/>
</svg>
