<svg width="22" height="22" viewBox="0 0 22 22" fill="none" xmlns="http://www.w3.org/2000/svg">
<path fill-rule="evenodd" clip-rule="evenodd" d="M11.0003 18.3327C15.0504 18.3327 18.3337 15.0494 18.3337 10.9993C18.3337 6.94926 15.0504 3.66602 11.0003 3.66602C6.95024 3.66602 3.66699 6.94926 3.66699 10.9993C3.66699 15.0494 6.95024 18.3327 11.0003 18.3327ZM11.0003 19.7077C15.8098 19.7077 19.7087 15.8088 19.7087 10.9993C19.7087 6.18987 15.8098 2.29102 11.0003 2.29102C6.19085 2.29102 2.29199 6.18987 2.29199 10.9993C2.29199 15.8088 6.19085 19.7077 11.0003 19.7077Z" fill="#CD1211"/>
<path fill-rule="evenodd" clip-rule="evenodd" d="M7.73647 7.73658C8.00495 7.46809 8.44025 7.46809 8.70874 7.73658L14.2087 13.2366C14.4772 13.5051 14.4772 13.9404 14.2087 14.2089C13.9403 14.4773 13.505 14.4773 13.2365 14.2089L7.73647 8.70885C7.46798 8.44037 7.46798 8.00507 7.73647 7.73658Z" fill="#CD1211"/>
<path fill-rule="evenodd" clip-rule="evenodd" d="M7.73647 14.2089C7.46798 13.9404 7.46798 13.5051 7.73647 13.2366L13.2365 7.73658C13.505 7.46809 13.9403 7.46809 14.2087 7.73658C14.4772 8.00507 14.4772 8.44037 14.2087 8.70885L8.70874 14.2089C8.44025 14.4773 8.00495 14.4773 7.73647 14.2089Z" fill="#CD1211"/>
</svg>
