<svg width="22" height="22" viewBox="0 0 22 22" fill="currentColor" xmlns="http://www.w3.org/2000/svg">
<path fill-rule="evenodd" clip-rule="evenodd" d="M11.0003 18.3327C15.0504 18.3327 18.3337 15.0494 18.3337 10.9993C18.3337 6.94926 15.0504 3.66602 11.0003 3.66602C6.95024 3.66602 3.66699 6.94926 3.66699 10.9993C3.66699 15.0494 6.95024 18.3327 11.0003 18.3327ZM11.0003 19.7077C15.8098 19.7077 19.7087 15.8088 19.7087 10.9993C19.7087 6.18987 15.8098 2.29102 11.0003 2.29102C6.19085 2.29102 2.29199 6.18987 2.29199 10.9993C2.29199 15.8088 6.19085 19.7077 11.0003 19.7077Z" fill="currentColor"/>
<path fill-rule="evenodd" clip-rule="evenodd" d="M14.7197 8.70611C14.9737 8.98833 14.9508 9.42303 14.6686 9.67704L10.0852 13.802C9.81345 14.0466 9.39775 14.0357 9.13919 13.7772L7.30586 11.9438C7.03737 11.6753 7.03737 11.24 7.30586 10.9716C7.57434 10.7031 8.00964 10.7031 8.27813 10.9716L9.65024 12.3437L13.7487 8.65501C14.031 8.401 14.4657 8.42388 14.7197 8.70611Z" fill="currentColor"/>
</svg>
