<svg width="56" height="56" viewBox="0 0 56 56" fill="none" xmlns="http://www.w3.org/2000/svg">
<path fill-rule="evenodd" clip-rule="evenodd" d="M27.9997 46.6667C38.309 46.6667 46.6663 38.3093 46.6663 28C46.6663 17.6907 38.309 9.33334 27.9997 9.33334C17.6904 9.33334 9.33301 17.6907 9.33301 28C9.33301 38.3093 17.6904 46.6667 27.9997 46.6667ZM27.9997 50.1667C40.242 50.1667 50.1663 40.2423 50.1663 28C50.1663 15.7577 40.242 5.83334 27.9997 5.83334C15.7574 5.83334 5.83301 15.7577 5.83301 28C5.83301 40.2423 15.7574 50.1667 27.9997 50.1667Z" fill="#CD1211"/>
<path fill-rule="evenodd" clip-rule="evenodd" d="M19.6921 19.6918C20.3755 19.0084 21.4836 19.0084 22.167 19.6918L36.167 33.6918C36.8504 34.3752 36.8504 35.4833 36.167 36.1667C35.4836 36.8501 34.3755 36.8501 33.6921 36.1667L19.6921 22.1667C19.0087 21.4833 19.0087 20.3752 19.6921 19.6918Z" fill="#CD1211"/>
<path fill-rule="evenodd" clip-rule="evenodd" d="M19.6921 36.1667C19.0087 35.4833 19.0087 34.3752 19.6921 33.6918L33.6921 19.6918C34.3755 19.0084 35.4836 19.0084 36.167 19.6918C36.8504 20.3752 36.8504 21.4833 36.167 22.1667L22.167 36.1667C21.4836 36.8501 20.3755 36.8501 19.6921 36.1667Z" fill="#CD1211"/>
</svg>
