<svg width="20" height="20" viewBox="0 0 20 20" fill="currentColor" xmlns="http://www.w3.org/2000/svg">
<path d="M15.1079 14.2586C14.7675 14.3158 14.5379 14.6381 14.595 14.9785C14.6522 15.3189 14.9745 15.5485 15.3149 15.4913L15.1079 14.2586ZM14.1793 9.6936C13.8342 9.6936 13.5543 9.97342 13.5543 10.3186C13.5543 10.6638 13.8342 10.9436 14.1793 10.9436V9.6936ZM13.4103 8.3605C14.5253 8.3605 15.4288 7.45645 15.4288 6.34162H14.1788C14.1788 6.76643 13.8346 7.1105 13.4103 7.1105V8.3605ZM11.3918 6.34162C11.3918 7.45645 12.2954 8.3605 13.4103 8.3605V7.1105C12.986 7.1105 12.6418 6.76643 12.6418 6.34162H11.3918ZM13.4103 4.32274C12.2954 4.32274 11.3918 5.22679 11.3918 6.34162H12.6418C12.6418 5.91681 12.986 5.57274 13.4103 5.57274V4.32274ZM15.4288 6.34162C15.4288 5.22679 14.5253 4.32274 13.4103 4.32274V5.57274C13.8346 5.57274 14.1788 5.91681 14.1788 6.34162H15.4288ZM16.875 12.6367C16.875 13.0282 16.7498 13.3616 16.4975 13.6263C16.2396 13.8969 15.804 14.1417 15.1079 14.2586L15.3149 15.4913C16.2035 15.3421 16.9121 15.0031 17.4023 14.4888C17.8982 13.9686 18.125 13.3161 18.125 12.6367H16.875ZM14.1793 10.9436C14.9842 10.9436 15.6859 11.1723 16.1696 11.51C16.6555 11.8492 16.875 12.2573 16.875 12.6367H18.125C18.125 11.7359 17.6012 10.9849 16.8852 10.4851C16.1671 9.98378 15.2085 9.6936 14.1793 9.6936V10.9436ZM8.76044 6.19109C8.76044 7.15524 8.11512 7.73387 7.40986 7.73387V8.98387C8.88676 8.98387 10.0104 7.7614 10.0104 6.19109H8.76044ZM7.40986 7.73387C6.70459 7.73387 6.05927 7.15524 6.05927 6.19109H4.80927C4.80927 7.7614 5.93295 8.98387 7.40986 8.98387V7.73387ZM6.05927 6.19109C6.05927 5.70949 6.22364 5.37054 6.44867 5.15168C6.67754 4.92908 7.00958 4.79163 7.40986 4.79163V3.54163C6.71905 3.54163 6.0633 3.78278 5.57715 4.25561C5.08715 4.73218 4.80927 5.40545 4.80927 6.19109H6.05927ZM7.40986 4.79163C7.81014 4.79163 8.14218 4.92908 8.37105 5.15168C8.59607 5.37054 8.76044 5.70949 8.76044 6.19109H10.0104C10.0104 5.40545 9.73257 4.73217 9.24257 4.25561C8.75642 3.78278 8.10066 3.54163 7.40986 3.54163V4.79163ZM11.9336 13.4732C11.9336 13.8315 11.7418 14.2373 11.0694 14.5878C10.3764 14.9492 9.23337 15.2083 7.52928 15.2083V16.4583C9.33045 16.4583 10.7021 16.1891 11.6473 15.6962C12.6133 15.1926 13.1836 14.4183 13.1836 13.4732H11.9336ZM7.52928 15.2083C5.82519 15.2083 4.68216 14.9492 3.98912 14.5878C3.31675 14.2373 3.125 13.8315 3.125 13.4732H1.875C1.875 14.4183 2.44526 15.1926 3.41122 15.6962C4.35651 16.1891 5.72811 16.4583 7.52928 16.4583V15.2083ZM3.125 13.4732C3.125 13.2067 3.3791 12.7735 4.23856 12.3701C5.04843 11.9901 6.21119 11.7381 7.52928 11.7381V10.4881C6.06977 10.4881 4.7179 10.7644 3.70753 11.2385C2.74675 11.6894 1.875 12.4362 1.875 13.4732H3.125ZM7.52928 11.7381C8.84736 11.7381 10.0101 11.9901 10.82 12.3701C11.6795 12.7735 11.9336 13.2067 11.9336 13.4732H13.1836C13.1836 12.4362 12.3118 11.6894 11.351 11.2385C10.3407 10.7644 8.98879 10.4881 7.52928 10.4881V11.7381Z" fill="currentColor"/>
</svg>
