<svg width="72" height="72" viewBox="0 0 72 72" fill="none" xmlns="http://www.w3.org/2000/svg">
<path fill-rule="evenodd" clip-rule="evenodd" d="M10.8 7.2H21.6581L21.6581 17.0419H10.8L10.8 7.2ZM8.1 7.2C8.1 5.70883 9.30883 4.5 10.8 4.5H21.6581C23.1493 4.5 24.3581 5.70883 24.3581 7.2V17.0419C24.3581 18.5331 23.1492 19.7419 21.6581 19.7419H10.8C9.30883 19.7419 8.1 18.5331 8.1 17.0419V7.2ZM64.8003 21.542H36.668V26.6371H64.7662H64.8003V21.542ZM36.668 50.6904V29.3371H64.7662H64.8003V50.6904H36.668ZM36.668 18.842C35.1768 18.842 33.968 20.0508 33.968 21.542V50.6904C33.968 52.1816 35.1768 53.3904 36.668 53.3904H64.8003C66.2914 53.3904 67.5003 52.1816 67.5003 50.6904V21.542C67.5003 20.0508 66.2914 18.842 64.8003 18.842H36.668ZM26.1871 27.6387H7.2L7.2 30.7016H26.1871V27.6387ZM26.1871 33.4016H7.2L7.2 44.5936H26.1871L26.1871 33.4016ZM7.2 24.9387C5.70883 24.9387 4.5 26.1475 4.5 27.6387V44.5936C4.5 46.0847 5.70883 47.2936 7.2 47.2936H14.85V50.342C14.85 51.0876 15.4544 51.692 16.2 51.692C16.9456 51.692 17.55 51.0876 17.55 50.342L17.55 47.2936H26.1871C27.6783 47.2936 28.8871 46.0847 28.8871 44.5936V27.6387C28.8871 26.1475 27.6783 24.9387 26.1871 24.9387H17.55L17.55 21.9872V21.8905C17.55 21.1449 16.9456 20.5405 16.2 20.5405C15.4544 20.5405 14.85 21.1449 14.85 21.8905V21.9872V24.9387H7.2ZM40.192 33.1955V37.0045H47.0495V33.1955H40.192ZM38.932 31.0355C38.435 31.0355 38.032 31.4384 38.032 31.9355V38.2645C38.032 38.7616 38.435 39.1645 38.932 39.1645H48.3095C48.8065 39.1645 49.2095 38.7616 49.2095 38.2645V31.9355C49.2095 31.4384 48.8065 31.0355 48.3095 31.0355H38.932ZM40.192 47.166V43.357H47.0495V47.166H40.192ZM38.032 42.097C38.032 41.5999 38.435 41.197 38.932 41.197H48.3095C48.8065 41.197 49.2095 41.5999 49.2095 42.097V48.426C49.2095 48.9231 48.8065 49.326 48.3095 49.326H38.932C38.435 49.326 38.032 48.9231 38.032 48.426V42.097ZM21.6581 55.074H10.8L10.8 64.916H21.6581L21.6581 55.074ZM10.8 52.374C9.30883 52.374 8.1 53.5829 8.1 55.074V64.916C8.1 66.4071 9.30883 67.616 10.8 67.616H21.6581C23.1492 67.616 24.3581 66.4071 24.3581 64.916V55.074C24.3581 53.5829 23.1493 52.374 21.6581 52.374H10.8ZM51.178 37.1323C51.178 36.5359 51.6616 36.0523 52.258 36.0523H61.1855H61.4032C61.9997 36.0523 62.4832 36.5359 62.4832 37.1323C62.4832 37.7288 61.9997 38.2123 61.4032 38.2123H61.1855H52.258C51.6616 38.2123 51.178 37.7288 51.178 37.1323ZM52.258 46.2135C51.6616 46.2135 51.178 46.6971 51.178 47.2935C51.178 47.89 51.6616 48.3735 52.258 48.3735H61.1855H61.4032C61.9997 48.3735 62.4832 47.89 62.4832 47.2935C62.4832 46.6971 61.9997 46.2135 61.4032 46.2135H61.1855H52.258ZM51.178 33.0677C51.178 32.4713 51.6616 31.9877 52.258 31.9877H61.1855H61.4032C61.9997 31.9877 62.4832 32.4713 62.4832 33.0677C62.4832 33.6642 61.9997 34.1477 61.4032 34.1477H61.1855H52.258C51.6616 34.1477 51.178 33.6642 51.178 33.0677ZM52.258 42.149C51.6616 42.149 51.178 42.6326 51.178 43.229C51.178 43.8255 51.6616 44.309 52.258 44.309H61.1855H61.4032C61.9997 44.309 62.4832 43.8255 62.4832 43.229C62.4832 42.6326 61.9997 42.149 61.4032 42.149H61.1855H52.258ZM14.5459 9.51697C13.9494 9.51697 13.4659 10.0005 13.4659 10.597C13.4659 11.1934 13.9494 11.677 14.5459 11.677H18.5136H18.6104C19.2069 11.677 19.6904 11.1934 19.6904 10.597C19.6904 10.0005 19.2069 9.51697 18.6104 9.51697H18.5136H14.5459ZM13.4659 13.645C13.4659 13.0486 13.9494 12.565 14.5459 12.565H18.5136H18.6104C19.2069 12.565 19.6904 13.0486 19.6904 13.645C19.6904 14.2415 19.2069 14.725 18.6104 14.725H18.5136H14.5459C13.9494 14.725 13.4659 14.2415 13.4659 13.645ZM14.4 57.391C13.8035 57.391 13.32 57.8746 13.32 58.471C13.32 59.0675 13.8035 59.551 14.4 59.551H18.3677H18.4645C19.061 59.551 19.5445 59.0675 19.5445 58.471C19.5445 57.8746 19.061 57.391 18.4645 57.391H18.3677H14.4ZM13.32 61.5193C13.32 60.9229 13.8035 60.4393 14.4 60.4393H18.3677H18.4645C19.061 60.4393 19.5445 60.9229 19.5445 61.5193C19.5445 62.1158 19.061 62.5993 18.4645 62.5993H18.3677H14.4C13.8035 62.5993 13.32 62.1158 13.32 61.5193ZM40.0643 22.9065H38.032V24.9388H40.0643V22.9065ZM42.0961 22.9065H44.1284V24.9388H42.0961V22.9065ZM48.1942 22.9065H46.1619V24.9388H48.1942V22.9065ZM52.0831 55.4224C52.0831 54.6769 51.4787 54.0724 50.7331 54.0724C49.9875 54.0724 49.3831 54.6769 49.3831 55.4224L49.3831 59.1531H40.8999C40.3086 57.0024 38.3391 55.4225 36.0006 55.4225C33.1946 55.4225 30.9199 57.6972 30.9199 60.5032C30.9199 63.3091 33.1946 65.5838 36.0006 65.5838C38.3391 65.5838 40.3087 64.0038 40.8999 61.8531H49.8331C51.0757 61.8531 52.0831 60.8457 52.0831 59.6031V55.4224ZM31.1005 61.8531C30.9823 61.4232 30.9191 60.9705 30.9191 60.503C30.9191 60.0356 30.9822 59.5829 31.1004 59.1531H27.8992C27.1536 59.1531 26.5492 59.7575 26.5492 60.5031C26.5492 61.2487 27.1536 61.8531 27.8992 61.8531H31.1005ZM38.3812 60.5032C38.3812 61.818 37.3154 62.8838 36.0006 62.8838C34.6858 62.8838 33.6199 61.818 33.6199 60.5032C33.6199 59.1884 34.6858 58.1225 36.0006 58.1225C37.3154 58.1225 38.3812 59.1884 38.3812 60.5032ZM40.9003 13.0791C41.0185 12.6492 41.0816 12.1966 41.0816 11.7292C41.0816 11.2617 41.0185 10.809 40.9002 10.3791H49.8343C51.0769 10.3791 52.0843 11.3864 52.0843 12.6291V16.8097C52.0843 17.5553 51.4799 18.1597 50.7343 18.1597C49.9887 18.1597 49.3843 17.5553 49.3843 16.8097L49.3843 13.0791H40.9003ZM31.1012 13.0791H27.4504C26.7048 13.0791 26.1004 12.4747 26.1004 11.7291C26.1004 10.9835 26.7048 10.3791 27.4504 10.3791H31.1012C31.6926 8.22841 33.6621 6.64849 36.0006 6.64849C38.8065 6.64849 41.0812 8.92317 41.0812 11.7291C41.0812 14.5351 38.8065 16.8098 36.0006 16.8098C33.662 16.8098 31.6925 15.2298 31.1012 13.0791ZM38.3812 11.7291C38.3812 13.0439 37.3154 14.1098 36.0006 14.1098C34.6858 14.1098 33.6199 13.0439 33.6199 11.7291C33.6199 10.4143 34.6858 9.34849 36.0006 9.34849C37.3154 9.34849 38.3812 10.4143 38.3812 11.7291Z" fill="url(#paint0_linear_9900_10748)"/>
<defs>
<linearGradient id="paint0_linear_9900_10748" x1="65.603" y1="61.5777" x2="1.60783" y2="-9.80166" gradientUnits="userSpaceOnUse">
<stop stop-color="#CD128A"/>
<stop offset="0.6" stop-color="#00359B"/>
<stop offset="1" stop-color="#0452BF"/>
</linearGradient>
</defs>
</svg>
