<svg width="24" height="24" viewBox="0 0 24 24" fill="currentColor" xmlns="http://www.w3.org/2000/svg">
<rect width="24" height="24" transform="translate(24 24) rotate(-180)" fill="currentColor"/>
<path d="M12.7415 16.4971C12.9182 16.7092 13.2335 16.7379 13.4457 16.5611C13.6578 16.3843 13.6865 16.069 13.5097 15.8569L12.7415 16.4971ZM9.81097 12.1995L9.42686 11.8794C9.27235 12.0648 9.27235 12.3342 9.42686 12.5196L9.81097 12.1995ZM13.5097 8.54209C13.6865 8.32995 13.6578 8.01467 13.4457 7.83788C13.2335 7.6611 12.9182 7.68976 12.7415 7.9019L13.5097 8.54209ZM13.5097 15.8569L10.1951 11.8794L9.42686 12.5196L12.7415 16.4971L13.5097 15.8569ZM10.1951 12.5196L13.5097 8.54209L12.7415 7.9019L9.42686 11.8794L10.1951 12.5196ZM12 20.5C7.30558 20.5 3.5 16.6944 3.5 12L2.5 12C2.5 17.2467 6.75329 21.5 12 21.5L12 20.5ZM3.5 12C3.5 7.30558 7.30558 3.5 12 3.5L12 2.5C6.7533 2.5 2.5 6.75329 2.5 12L3.5 12ZM12 3.5C16.6944 3.5 20.5 7.30558 20.5 12L21.5 12C21.5 6.75329 17.2467 2.5 12 2.5L12 3.5ZM20.5 12C20.5 16.6944 16.6944 20.5 12 20.5L12 21.5C17.2467 21.5 21.5 17.2467 21.5 12L20.5 12Z" fill="currentColor"/>
</svg>
