<svg width="28" height="28" viewBox="0 0 28 28" fill="currentColor" xmlns="http://www.w3.org/2000/svg">
<path d="M17.3614 14.3059C17.3757 14.3059 17.39 14.3087 17.4042 14.3087C19.9136 14.3087 21.9461 12.2761 21.9461 9.7668C21.9461 7.74278 20.613 6.04706 18.7831 5.46184C19.5567 6.50382 20.0192 7.79132 20.0192 9.18729C20.0192 11.2998 18.9686 13.1668 17.3614 14.3059ZM10.0761 14.3087C10.0932 14.3087 10.1103 14.3059 10.1275 14.3059C8.5231 13.1668 7.4697 11.2998 7.4697 9.18729C7.4697 7.79132 7.93503 6.50382 8.70866 5.45898C6.87306 6.04135 5.53704 7.73993 5.53704 9.7668C5.53418 12.2761 7.56962 14.3087 10.0761 14.3087ZM7.18137 15.4706C4.26953 15.7846 2 18.2483 2 21.2458V22.1536C2 22.3905 2.19127 22.5818 2.42821 22.5818H3.43879V21.8224C3.43594 19.0933 4.95181 16.7124 7.18137 15.4706Z"/>
<path d="M9.96163 5.66146C9.85886 5.7728 9.76179 5.88699 9.66759 6.00403L9.59907 6.09824C9.51629 6.20672 9.43921 6.32091 9.36784 6.4351C9.34215 6.47507 9.31645 6.51789 9.29362 6.55786C9.22796 6.66634 9.16801 6.78053 9.11091 6.89472C9.08522 6.9461 9.06238 6.99463 9.03954 7.04602C8.98816 7.15735 8.94534 7.26869 8.90251 7.38288C8.88253 7.43997 8.85969 7.49707 8.83971 7.55416C8.8026 7.66835 8.7712 7.7854 8.73979 7.90244C8.72552 7.96239 8.70554 8.02234 8.69412 8.08229C8.66842 8.2079 8.64844 8.33351 8.63131 8.46197C8.62275 8.51907 8.61133 8.57331 8.60562 8.62755C8.58564 8.81025 8.57422 8.99867 8.57422 9.18708C8.57422 9.42688 8.59706 9.66382 8.62846 9.89506C8.63702 9.95215 8.64559 10.0064 8.65415 10.0635C8.69412 10.2919 8.74265 10.5174 8.81116 10.7344C8.81116 10.7372 8.81402 10.7429 8.81402 10.7458C8.88253 10.9627 8.96817 11.1683 9.06238 11.371C9.08522 11.4166 9.1052 11.4623 9.12804 11.508C9.23081 11.7107 9.34215 11.9105 9.47061 12.0961L9.47346 12.0989C9.60193 12.2873 9.74467 12.4615 9.89597 12.6299L9.98161 12.7241C10.2956 13.061 10.6553 13.3522 11.0521 13.5948C11.0835 13.6148 11.1149 13.6348 11.1463 13.6519C11.349 13.7718 11.5603 13.8803 11.7801 13.9688C12.3882 14.22 13.0562 14.3599 13.7556 14.3599C14.455 14.3599 15.1202 14.22 15.7282 13.9688C15.948 13.8774 16.1593 13.769 16.3648 13.6491C16.3962 13.6319 16.4248 13.6119 16.4562 13.5948C16.853 13.3522 17.2127 13.0581 17.5296 12.7213C17.5581 12.6899 17.5867 12.6613 17.6124 12.6299C17.7637 12.4615 17.9064 12.2845 18.0349 12.0961L18.0377 12.0932C18.1662 11.9048 18.2775 11.7078 18.3803 11.5023C18.4031 11.4566 18.4231 11.4109 18.4459 11.3653C18.5402 11.1626 18.6258 10.957 18.6943 10.7401C18.6972 10.7344 18.6972 10.7315 18.7 10.7258C18.7685 10.5088 18.8171 10.2833 18.857 10.0549C18.8656 9.99783 18.8742 9.94359 18.8827 9.88649C18.9141 9.65526 18.937 9.41831 18.937 9.17852C18.937 8.9901 18.9255 8.80169 18.9056 8.61898C18.8998 8.56189 18.8884 8.50765 18.8799 8.45055C18.8627 8.32495 18.8428 8.19648 18.8171 8.07373C18.8028 8.01092 18.7857 7.95383 18.7714 7.89102C18.7428 7.77398 18.7114 7.65979 18.6715 7.5456C18.6515 7.4885 18.6286 7.43141 18.6087 7.37431C18.5658 7.26012 18.5202 7.14879 18.4716 7.03745C18.4488 6.98607 18.4231 6.93754 18.3974 6.88615C18.3403 6.77196 18.2804 6.66063 18.2176 6.55215C18.1919 6.50932 18.169 6.46936 18.1433 6.42939C18.0691 6.31235 17.992 6.20101 17.9121 6.09253C17.8893 6.06113 17.8664 6.02973 17.8436 6.00118C17.7494 5.88128 17.6523 5.76709 17.5496 5.65575C17.5324 5.63863 17.5181 5.61864 17.501 5.60151C17.3783 5.47305 17.2527 5.35315 17.1185 5.23896C16.2135 4.46818 15.0431 4 13.7642 4C12.4824 4 11.3119 4.46818 10.4098 5.23896C10.2756 5.35315 10.15 5.47305 10.0273 5.60151C9.99303 5.62435 9.97876 5.64434 9.96163 5.66146Z"/>
<path d="M16.7346 15.6504H10.711C7.30246 15.6504 4.53906 18.4138 4.53906 21.8224V23.3468C4.53906 23.598 4.74175 23.8007 4.99297 23.8007H22.4526C22.7038 23.8007 22.9065 23.598 22.9065 23.3468V21.8224C22.9065 18.4138 20.1431 15.6504 16.7346 15.6504Z"/>
<path d="M20.25 15.4707C22.4796 16.7125 23.9954 19.0934 23.9954 21.8225V22.5819H25.006C25.243 22.5819 25.4342 22.3906 25.4342 22.1537V21.2459C25.4314 18.2484 23.1618 15.7847 20.25 15.4707Z"/>
</svg>
